<svg xmlns="http://www.w3.org/2000/svg" width="124" height="30" viewBox="0 0 124 30" fill="none"><path d="M26.7301 10.71C27.0901 10.71 27.2101 10.84 27.2101 11.19V19.11H31.2801C31.6301 19.11 31.7601 19.24 31.7601 19.59V20.29C31.7601 20.64 31.6301 20.77 31.2801 20.77H25.9201C25.5701 20.77 25.4301 20.64 25.4301 20.29V11.19C25.4301 10.84 25.5701 10.71 25.9201 10.71H26.7301Z" fill="#131516"></path><path d="M35.3101 14.2C35.3101 11.89 36.7701 10.5 39.3101 10.5C41.8501 10.5 43.3101 11.89 43.3101 14.2V17.28C43.3101 19.59 41.8401 20.98 39.3101 20.98C36.7801 20.98 35.3101 19.59 35.3101 17.28V14.2ZM41.6301 14.2C41.6301 12.9 40.8201 12.2 39.3601 12.2C37.9001 12.2 37.1001 12.91 37.1001 14.2V17.3C37.1001 18.61 37.9001 19.3 39.3601 19.3C40.8201 19.3 41.6301 18.58 41.6301 17.3V14.2Z" fill="#131516"></path><path d="M55.22 15.26C55.61 15.26 55.7 15.39 55.7 15.74V17.64C55.7106 18.0875 55.6209 18.5317 55.4375 18.9401C55.2541 19.3485 54.9816 19.7106 54.64 20C53.7917 20.6755 52.7221 21.0106 51.64 20.94C49.05 20.94 47.64 19.55 47.64 17.24V14.14C47.64 11.86 49.1 10.46 51.64 10.46C53.64 10.46 54.94 11.25 55.49 12.83C55.5208 12.8893 55.5373 12.9551 55.5382 13.0219C55.5391 13.0888 55.5244 13.1549 55.4953 13.2151C55.4662 13.2753 55.4234 13.3279 55.3704 13.3686C55.3174 13.4094 55.2557 13.4372 55.19 13.45L54.41 13.72C54.07 13.84 53.93 13.77 53.81 13.42C53.6444 12.9928 53.3411 12.6331 52.9481 12.3977C52.555 12.1622 52.0948 12.0645 51.64 12.12C50.17 12.12 49.37 12.83 49.37 14.12V17.3C49.37 18.61 50.18 19.3 51.64 19.3C53.1 19.3 54 18.63 54 17.65V16.91H51.83C51.47 16.91 51.34 16.77 51.34 16.42V15.74C51.34 15.39 51.47 15.26 51.83 15.26H55.22Z" fill="#131516"></path><path d="M59.83 14.2C59.83 11.89 61.29 10.5 63.83 10.5C66.37 10.5 67.83 11.89 67.83 14.2V17.28C67.83 19.59 66.36 20.98 63.83 20.98C61.3 20.98 59.83 19.59 59.83 17.28V14.2ZM66.14 14.2C66.14 12.9 65.33 12.2 63.88 12.2C62.43 12.2 61.61 12.91 61.61 14.2V17.3C61.61 18.61 62.42 19.3 63.88 19.3C65.34 19.3 66.14 18.58 66.14 17.3V14.2Z" fill="#131516"></path><path d="M72.54 11C72.54 10.78 72.61 10.71 72.83 10.71H73.29C73.51 10.71 73.56 10.78 73.56 11V20.48C73.56 20.7 73.56 20.77 73.29 20.77H72.83C72.61 20.77 72.54 20.7 72.54 20.48V11Z" fill="#131516"></path><path d="M82.67 10.71C83.5028 10.71 84.3015 11.0408 84.8903 11.6296C85.4792 12.2185 85.81 13.0172 85.81 13.85C85.81 14.6827 85.4792 15.4814 84.8903 16.0703C84.3015 16.6591 83.5028 16.99 82.67 16.99H79.67V20.48C79.67 20.7 79.62 20.77 79.41 20.77H78.94C78.73 20.77 78.65 20.7 78.65 20.48V11C78.65 10.78 78.73 10.71 78.94 10.71H82.67ZM82.58 16C82.8663 16 83.1498 15.9436 83.4143 15.834C83.6788 15.7245 83.9191 15.5639 84.1215 15.3615C84.3239 15.159 84.4845 14.9187 84.5941 14.6542C84.7036 14.3897 84.76 14.1062 84.76 13.82C84.76 13.5337 84.7036 13.2502 84.5941 12.9857C84.4845 12.7212 84.3239 12.4809 84.1215 12.2785C83.9191 12.076 83.6788 11.9155 83.4143 11.8059C83.1498 11.6963 82.8663 11.64 82.58 11.64H79.58V16H82.58Z" fill="#131516"></path><path d="M93.62 10.5101C94.3921 10.4249 95.171 10.591 95.8412 10.9837C96.5114 11.3764 97.037 11.9748 97.34 12.6901C97.42 12.8501 97.34 12.9801 97.18 13.0601L96.74 13.2601C96.56 13.3301 96.49 13.3201 96.38 13.1301C96.1534 12.5993 95.7639 12.1543 95.2678 11.8594C94.7716 11.5646 94.1945 11.4353 93.62 11.4901C91.93 11.4901 91.01 12.1601 91.01 13.3601C91.0002 13.7268 91.1234 14.0847 91.3568 14.3678C91.5902 14.6508 91.9181 14.8399 92.28 14.9001C92.8178 15.0755 93.3755 15.183 93.94 15.2201C94.6233 15.2565 95.2974 15.3947 95.94 15.6301C96.4326 15.7859 96.8566 16.1066 97.1407 16.5382C97.4247 16.9698 97.5516 17.486 97.5 18.0001C97.5 19.8701 96.14 21.0001 93.64 21.0001C92.82 21.0939 91.9926 20.9039 91.2957 20.4617C90.5988 20.0195 90.0744 19.3519 89.81 18.5701C89.7924 18.5344 89.7828 18.4953 89.782 18.4556C89.7813 18.4158 89.7893 18.3763 89.8055 18.34C89.8218 18.3037 89.8458 18.2715 89.876 18.2455C89.9061 18.2196 89.9417 18.2007 89.98 18.1901L90.42 18.0301C90.4547 18.0159 90.4919 18.0091 90.5293 18.0101C90.5667 18.0111 90.6035 18.0199 90.6374 18.0359C90.6713 18.0519 90.7014 18.0747 90.726 18.103C90.7505 18.1312 90.7689 18.1643 90.78 18.2001C91.0037 18.765 91.4015 19.244 91.9157 19.5676C92.43 19.8913 93.0339 20.0427 93.64 20.0001C95.53 20.0001 96.46 19.3401 96.46 18.0001C96.4776 17.6478 96.3697 17.3008 96.1554 17.0206C95.9412 16.7405 95.6345 16.5454 95.29 16.4701C94.7726 16.3157 94.239 16.2218 93.7 16.1901L92.62 16.0501C92.282 15.9783 91.9482 15.8882 91.62 15.7801C91.2958 15.6822 90.9936 15.5226 90.73 15.3101C90.4647 15.0699 90.2556 14.7742 90.1173 14.4441C89.9791 14.1141 89.9151 13.7576 89.93 13.4001C90 11.6501 91.31 10.5101 93.62 10.5101Z" fill="#131516"></path><path d="M102.89 17.35C102.932 18.0571 103.243 18.7214 103.759 19.2071C104.275 19.6928 104.957 19.9633 105.665 19.9633C106.373 19.9633 107.055 19.6928 107.571 19.2071C108.087 18.7214 108.398 18.0571 108.44 17.35V11C108.44 10.78 108.51 10.71 108.73 10.71H109.19C109.41 10.71 109.48 10.78 109.48 11V17.34C109.48 19.61 108.14 20.98 105.67 20.98C103.2 20.98 101.86 19.61 101.86 17.34V11C101.86 10.78 101.93 10.71 102.14 10.71H102.61C102.82 10.71 102.89 10.78 102.89 11V17.35Z" fill="#131516"></path><path d="M123.28 10.7102C123.5 10.7102 123.57 10.7802 123.57 11.0002V20.4802C123.57 20.7002 123.5 20.7702 123.28 20.7702H122.86C122.65 20.7702 122.58 20.7002 122.58 20.4802V14.7102C122.58 13.8707 122.637 13.0321 122.75 12.2002H122.69C122.378 12.9609 122.013 13.6993 121.6 14.4102L119.45 18.2002C119.424 18.266 119.378 18.3222 119.319 18.3615C119.26 18.4008 119.191 18.4212 119.12 18.4202H118.84C118.768 18.4206 118.698 18.3999 118.637 18.3609C118.577 18.3218 118.529 18.266 118.5 18.2002L116.32 14.3702C115.933 13.6695 115.599 12.9408 115.32 12.1902H115.26C115.362 13.0297 115.416 13.8745 115.42 14.7202V20.4802C115.42 20.7002 115.35 20.7702 115.13 20.7702H114.74C114.52 20.7702 114.45 20.7002 114.45 20.4802V11.0002C114.45 10.7802 114.52 10.7102 114.74 10.7102H115.1C115.182 10.7026 115.265 10.7206 115.336 10.7617C115.408 10.8029 115.465 10.8653 115.5 10.9402L119 17.1602L122.48 11.0002C122.59 10.7902 122.65 10.7602 122.87 10.7602L123.28 10.7102Z" fill="#131516"></path><path d="M8.93996 18.5498V25.7798C8.93996 26.0569 8.82986 26.3227 8.63389 26.5187C8.43791 26.7147 8.17211 26.8248 7.89496 26.8248C7.61781 26.8248 7.35201 26.7147 7.15604 26.5187C6.96006 26.3227 6.84996 26.0569 6.84996 25.7798V18.5598C7.14092 18.7722 7.48979 18.8909 7.84996 18.8998C8.2426 18.911 8.62725 18.7875 8.93996 18.5498V18.5498ZM17.84 16.4598C17.5747 16.4598 17.3204 16.5651 17.1329 16.7527C16.9453 16.9402 16.84 17.1945 16.84 17.4598V18.7198C16.84 18.9969 16.9501 19.2627 17.146 19.4587C17.342 19.6547 17.6078 19.7648 17.885 19.7648C18.1621 19.7648 18.4279 19.6547 18.6239 19.4587C18.8199 19.2627 18.93 18.9969 18.93 18.7198V17.5098C18.9377 17.3664 18.9146 17.223 18.862 17.0894C18.8094 16.9557 18.7286 16.835 18.6252 16.7354C18.5218 16.6358 18.3981 16.5596 18.2626 16.512C18.1271 16.4645 17.983 16.4466 17.84 16.4598V16.4598ZM4.57996 21.2898C4.22013 21.279 3.8718 21.1605 3.57996 20.9498V28.1998C3.57996 28.4782 3.69059 28.7453 3.8875 28.9422C4.08441 29.1391 4.35148 29.2498 4.62996 29.2498C4.90844 29.2498 5.17551 29.1391 5.37243 28.9422C5.56934 28.7453 5.67996 28.4782 5.67996 28.1998V20.9998C5.35342 21.2108 4.96813 21.3124 4.57996 21.2898V21.2898ZM14.58 14.2898C14.4445 14.283 14.3091 14.3038 14.1819 14.351C14.0548 14.3983 13.9385 14.4708 13.8403 14.5644C13.7421 14.6579 13.6639 14.7705 13.6106 14.8952C13.5572 15.0199 13.5298 15.1541 13.53 15.2898V20.8598C13.53 21.1382 13.6406 21.4053 13.8375 21.6022C14.0344 21.7991 14.3015 21.9098 14.58 21.9098C14.8584 21.9098 15.1255 21.7991 15.3224 21.6022C15.5193 21.4053 15.63 21.1382 15.63 20.8598V15.3598C15.6379 15.2155 15.6145 15.0711 15.5614 14.9367C15.5082 14.8023 15.4265 14.681 15.322 14.5812C15.2174 14.4814 15.0925 14.4055 14.9557 14.3586C14.819 14.3118 14.6738 14.2951 14.53 14.3098L14.58 14.2898ZM11.26 16.4298C10.8833 16.4272 10.5166 16.3085 10.21 16.0898V23.3598C10.21 23.6382 10.3206 23.9053 10.5175 24.1022C10.7144 24.2991 10.9815 24.4098 11.26 24.4098C11.5384 24.4098 11.8055 24.2991 12.0024 24.1022C12.1993 23.9053 12.31 23.6382 12.31 23.3598V16.0998C11.9927 16.3361 11.6054 16.4593 11.21 16.4498L11.26 16.4298ZM2.30996 21.9998V1.68977C2.30733 1.4422 2.20713 1.20567 2.03113 1.03154C1.85513 0.857417 1.61754 0.759752 1.36996 0.759766H1.14996C0.902381 0.759752 0.664792 0.857417 0.488792 1.03154C0.312793 1.20567 0.212595 1.4422 0.209961 1.68977V21.9998C0.209961 22.2491 0.308997 22.4882 0.485281 22.6644C0.661565 22.8407 0.900658 22.9398 1.14996 22.9398H1.36996C1.61927 22.9398 1.85836 22.8407 2.03464 22.6644C2.21093 22.4882 2.30996 22.2491 2.30996 21.9998V21.9998ZM4.68996 20.5198H4.46996C4.22066 20.5198 3.98156 20.4207 3.80528 20.2444C3.629 20.0682 3.52996 19.8291 3.52996 19.5798V4.10977C3.5326 3.8622 3.63279 3.62567 3.80879 3.45154C3.98479 3.27741 4.22238 3.17975 4.46996 3.17977H4.68996C4.93754 3.17975 5.17513 3.27741 5.35113 3.45154C5.52713 3.62567 5.62733 3.8622 5.62996 4.10977V19.5998C5.62996 19.8491 5.53093 20.0882 5.35464 20.2644C5.17836 20.4407 4.93927 20.5398 4.68996 20.5398V20.5198ZM7.99996 18.1398H7.76996C7.52331 18.1398 7.28676 18.0418 7.11235 17.8674C6.93795 17.693 6.83996 17.4564 6.83996 17.2098V6.50977C6.83864 6.3868 6.86172 6.26479 6.90786 6.1508C6.95401 6.03681 7.0223 5.9331 7.10879 5.84568C7.19528 5.75826 7.29825 5.68886 7.41174 5.6415C7.52523 5.59414 7.64699 5.56976 7.76996 5.56977H7.99996C8.24753 5.5724 8.48406 5.6726 8.65819 5.8486C8.83232 6.0246 8.92998 6.26219 8.92996 6.50977V17.2098C8.92996 17.4564 8.83198 17.693 8.65757 17.8674C8.48316 18.0418 8.24661 18.1398 7.99996 18.1398V18.1398ZM11.31 15.6898H11.1C10.8524 15.6898 10.6148 15.5921 10.4388 15.418C10.2628 15.2439 10.1626 15.0073 10.16 14.7598V8.99977C10.1517 8.87137 10.17 8.74266 10.2135 8.62159C10.2571 8.50053 10.325 8.3897 10.4131 8.29595C10.5013 8.20221 10.6077 8.12755 10.7258 8.0766C10.844 8.02566 10.9713 7.9995 11.1 7.99977H11.32C11.5693 7.99977 11.8084 8.0988 11.9846 8.27509C12.1609 8.45137 12.26 8.69046 12.26 8.93977V14.7398C12.2613 14.8641 12.2379 14.9874 12.1913 15.1026C12.1447 15.2178 12.0756 15.3226 11.9882 15.4109C11.9008 15.4993 11.7967 15.5694 11.682 15.6173C11.5673 15.6651 11.4443 15.6898 11.32 15.6898H11.31ZM14.63 13.5398H14.41C14.1607 13.5398 13.9216 13.4407 13.7453 13.2644C13.569 13.0882 13.47 12.8491 13.47 12.5998V11.1098C13.4726 10.8622 13.5728 10.6257 13.7488 10.4515C13.9248 10.2774 14.1624 10.1798 14.41 10.1798H14.63C14.8775 10.1798 15.1151 10.2774 15.2911 10.4515C15.4671 10.6257 15.5673 10.8622 15.57 11.1098V12.5998C15.57 12.8473 15.4723 13.0849 15.2982 13.2609C15.1241 13.4369 14.8875 13.5371 14.64 13.5398H14.63Z" fill="#131516"></path></svg>