<svg xmlns="http://www.w3.org/2000/svg" width="136" height="28" viewBox="0 0 136 28" fill="none"><path d="M20.419 12.3708C20.04 12.7521 19.7498 13.2122 19.569 13.7185C19.3882 14.2248 19.3213 14.7647 19.373 15.2998L19.355 15.2818C19.4082 15.9116 19.3233 16.5455 19.1062 17.1391C18.8891 17.7328 18.545 18.2719 18.0981 18.7188C17.6511 19.1658 17.112 19.5098 16.5184 19.7269C15.9247 19.944 15.2909 20.0289 14.661 19.9758L14.679 19.9938C13.9256 19.9236 13.1689 20.0876 12.5121 20.4633C11.8552 20.839 11.3303 21.4081 11.0087 22.0931C10.6872 22.778 10.5848 23.5455 10.7154 24.2908C10.846 25.0361 11.2033 25.723 11.7386 26.2579C12.2739 26.7927 12.9611 27.1494 13.7065 27.2793C14.452 27.4092 15.2194 27.3061 15.904 26.984C16.5887 26.6618 17.1574 26.1363 17.5325 25.4792C17.9076 24.822 18.0708 24.0651 18 23.3118L18.019 23.3298C17.9659 22.6999 18.0508 22.0661 18.2679 21.4724C18.485 20.8788 18.829 20.3397 19.276 19.8927C19.7229 19.4457 20.262 19.1017 20.8557 18.8846C21.4493 18.6675 22.0832 18.5826 22.713 18.6358L22.694 18.6178C23.3095 18.6731 23.9289 18.5722 24.495 18.3244C25.0611 18.0766 25.5554 17.6899 25.9322 17.2002C26.3091 16.7104 26.5562 16.1335 26.6507 15.5228C26.7452 14.9122 26.684 14.2875 26.4727 13.7068C26.2615 13.1261 25.9072 12.6081 25.4425 12.2008C24.9778 11.7935 24.4177 11.5101 23.8143 11.3769C23.2109 11.2436 22.5837 11.2649 21.9907 11.4386C21.3977 11.6124 20.8581 11.933 20.422 12.3708H20.419Z" fill="#131516"></path><path d="M13.042 17.6362L13.023 17.6182C13.5584 17.6722 14.099 17.6065 14.6058 17.4259C15.1126 17.2453 15.573 16.9543 15.9536 16.574C16.3342 16.1937 16.6255 15.7336 16.8065 15.2269C16.9875 14.7202 17.0536 14.1796 17 13.6442L17.019 13.6622C16.9659 13.0324 17.0508 12.3985 17.2679 11.8049C17.485 11.2112 17.829 10.6721 18.276 10.2252C18.7229 9.77822 19.262 9.43419 19.8557 9.2171C20.4493 9 21.0832 8.91507 21.713 8.96824L21.694 8.95024C22.4475 9.021 23.2045 8.85761 23.8617 8.48234C24.5189 8.10708 25.0443 7.53822 25.3663 6.85335C25.6884 6.16848 25.7913 5.40095 25.661 4.65544C25.5308 3.90994 25.1738 3.22275 24.6387 2.68762C24.1035 2.15248 23.4163 1.79545 22.6708 1.66522C21.9253 1.53499 21.1578 1.6379 20.4729 1.95992C19.7881 2.28194 19.2192 2.80738 18.8439 3.46459C18.4687 4.12179 18.3053 4.87876 18.376 5.63224L18.358 5.61324C18.4114 6.24313 18.3266 6.87707 18.1095 7.4708C17.8925 8.06452 17.5485 8.6037 17.1015 9.0507C16.6545 9.49769 16.1153 9.84172 15.5216 10.0588C14.9279 10.2758 14.2939 10.3606 13.664 10.3072L13.682 10.3262C13.1467 10.2723 12.6061 10.338 12.0992 10.5186C11.5924 10.6992 11.1321 10.9902 10.7515 11.3705C10.3709 11.7508 10.0796 12.2109 9.89858 12.7176C9.7176 13.2243 9.65149 13.7649 9.70503 14.3002L9.68703 14.2822C9.74002 14.9121 9.65497 15.5458 9.43782 16.1394C9.22066 16.733 8.87662 17.272 8.42971 17.7189C7.98279 18.1658 7.44375 18.5099 6.85019 18.727C6.25663 18.9442 5.62284 19.0292 4.99303 18.9762L5.01103 18.9942C4.25755 18.9235 3.50058 19.0869 2.84338 19.4621C2.18617 19.8374 1.66072 20.4063 1.33871 21.0911C1.01669 21.776 0.913774 22.5435 1.044 23.289C1.17423 24.0345 1.53127 24.7217 2.0664 25.2569C2.60154 25.792 3.28872 26.149 4.03423 26.2793C4.77974 26.4095 5.54727 26.3066 6.23214 25.9846C6.91701 25.6625 7.48587 25.1371 7.86113 24.4799C8.23639 23.8227 8.39979 23.0657 8.32903 22.3122L8.34803 22.3302C8.29486 21.7004 8.37979 21.0665 8.59688 20.4729C8.81397 19.8792 9.158 19.3401 9.60496 18.8932C10.0519 18.4462 10.591 18.1022 11.1847 17.8851C11.7783 17.668 12.4122 17.5831 13.042 17.6362V17.6362Z" fill="#131516"></path><path d="M6.33996 15.6289C6.71899 15.2477 7.00917 14.7875 7.18981 14.2812C7.37045 13.7749 7.43709 13.235 7.38496 12.6999L7.40396 12.7179C7.35076 12.0879 7.43572 11.4539 7.65293 10.8601C7.87014 10.2663 8.21436 9.72704 8.66154 9.28005C9.10872 8.83306 9.64809 8.48907 10.242 8.27212C10.8359 8.05516 11.47 7.97046 12.1 8.02394L12.081 8.00594C12.8342 8.07651 13.5908 7.91302 14.2477 7.53778C14.9046 7.16255 15.4298 6.59382 15.7516 5.90917C16.0735 5.22451 16.1763 4.45726 16.0461 3.71203C15.9158 2.9668 15.5589 2.27988 15.024 1.74494C14.489 1.21 13.8021 0.853081 13.0569 0.722857C12.3116 0.592633 11.5444 0.695444 10.8597 1.01727C10.1751 1.33909 9.60636 1.86426 9.23112 2.52116C8.85588 3.17806 8.6924 3.93472 8.76297 4.68794L8.74497 4.66994C8.79813 5.29979 8.71321 5.93366 8.49611 6.5273C8.27902 7.12094 7.93499 7.66005 7.48803 8.10701C7.04108 8.55396 6.50196 8.89799 5.90832 9.11509C5.31468 9.33218 4.68082 9.41711 4.05097 9.36394L4.06896 9.38194C3.45354 9.32675 2.83413 9.4278 2.26815 9.67572C1.70217 9.92364 1.20792 10.3104 0.831214 10.8002C0.454503 11.29 0.207516 11.8669 0.113141 12.4776C0.0187655 13.0882 0.0800546 13.7128 0.291329 14.2935C0.502604 14.8741 0.857029 15.3921 1.32176 15.7993C1.78649 16.2065 2.34649 16.4898 2.94987 16.623C3.55324 16.7562 4.18047 16.7349 4.77343 16.5611C5.3664 16.3874 5.9059 16.0667 6.34196 15.6289H6.33996Z" fill="#131516"></path><path d="M37.317 5.65479H40.287V20.1078H37.317V5.65479Z" fill="#131516"></path><path d="M41.969 15.1591C41.9649 14.1205 42.269 13.104 42.8431 12.2383C43.4171 11.3727 44.2351 10.6969 45.1935 10.2966C46.1519 9.89622 47.2075 9.78931 48.2267 9.98939C49.2459 10.1895 50.1828 10.6875 50.9187 11.4205C51.6546 12.1535 52.1564 13.0883 52.3606 14.1067C52.5648 15.1251 52.4621 16.1812 52.0656 17.1412C51.6691 18.1012 50.9966 18.9219 50.1333 19.4994C49.2699 20.0768 48.2547 20.3851 47.216 20.3851C46.5266 20.393 45.8424 20.2633 45.2037 20.0037C44.5649 19.7442 43.9843 19.3598 43.4958 18.8733C43.0072 18.3867 42.6206 17.8076 42.3585 17.1699C42.0963 16.5322 41.9639 15.8486 41.969 15.1591V15.1591ZM49.493 15.1591C49.4806 14.7114 49.3365 14.2773 49.0788 13.911C48.821 13.5448 48.461 13.2626 48.0438 13.0999C47.6265 12.9371 47.1706 12.9009 46.7329 12.9959C46.2952 13.0909 45.8952 13.3128 45.5829 13.6338C45.2707 13.9549 45.0599 14.3608 44.9771 14.801C44.8943 15.2411 44.9431 15.6959 45.1174 16.1085C45.2917 16.5211 45.5837 16.8731 45.9569 17.1206C46.3302 17.3681 46.7681 17.5001 47.216 17.5001C47.5227 17.5083 47.8278 17.4529 48.112 17.3373C48.3963 17.2217 48.6535 17.0484 48.8674 16.8285C49.0813 16.6085 49.2474 16.3466 49.355 16.0593C49.4627 15.772 49.5097 15.4655 49.493 15.1591V15.1591Z" fill="#131516"></path><path d="M64.3 10.2088V19.6088C64.3 22.9348 61.706 24.3408 59.073 24.3408C58.146 24.4102 57.2177 24.2229 56.3901 23.7996C55.5624 23.3762 54.8673 22.7331 54.381 21.9408L56.915 20.4758C57.1194 20.8888 57.4451 21.2296 57.8485 21.4524C58.2518 21.6753 58.7136 21.7696 59.172 21.7228C59.465 21.7634 59.7634 21.7376 60.0451 21.6473C60.3268 21.557 60.5845 21.4046 60.7993 21.2012C61.0141 20.9978 61.1805 20.7488 61.286 20.4724C61.3915 20.1961 61.4336 19.8996 61.409 19.6048V18.6998C61.0613 19.1254 60.6186 19.4634 60.1165 19.687C59.6145 19.9105 59.067 20.0132 58.518 19.9868C57.2118 19.9456 55.9729 19.3978 55.0635 18.4593C54.1541 17.5207 53.6456 16.2652 53.6456 14.9583C53.6456 13.6515 54.1541 12.3959 55.0635 11.4574C55.9729 10.5189 57.2118 9.97102 58.518 9.92982C59.067 9.90348 59.6145 10.0062 60.1165 10.2297C60.6186 10.4532 61.0613 10.7913 61.409 11.2168V10.2068L64.3 10.2088ZM61.41 14.9598C61.43 14.4812 61.3063 14.0075 61.0548 13.5998C60.8032 13.1921 60.4355 12.8689 59.9988 12.672C59.562 12.4751 59.0764 12.4133 58.6043 12.4947C58.1322 12.5761 57.6953 12.797 57.3498 13.1288C57.0042 13.4606 56.7659 13.8882 56.6655 14.3567C56.565 14.8251 56.6071 15.3128 56.7862 15.7571C56.9653 16.2015 57.2733 16.582 57.6705 16.8498C58.0677 17.1176 58.536 17.2604 59.015 17.2598C59.3271 17.2816 59.6403 17.2378 59.9343 17.1312C60.2284 17.0246 60.4969 16.8576 60.7226 16.6409C60.9482 16.4242 61.1259 16.1627 61.2443 15.8732C61.3627 15.5836 61.4192 15.2725 61.41 14.9598V14.9598Z" fill="#131516"></path><path d="M65.982 15.1591C65.9778 14.1205 66.282 13.104 66.856 12.2383C67.43 11.3727 68.248 10.6969 69.2064 10.2966C70.1648 9.89622 71.2205 9.78931 72.2397 9.98939C73.2589 10.1895 74.1957 10.6875 74.9317 11.4205C75.6676 12.1535 76.1694 13.0883 76.3735 14.1067C76.5777 15.1251 76.475 16.1812 76.0785 17.1412C75.682 18.1012 75.0095 18.9219 74.1462 19.4994C73.2829 20.0768 72.2676 20.3851 71.2289 20.3851C70.5395 20.393 69.8554 20.2633 69.2166 20.0037C68.5778 19.7442 67.9972 19.3598 67.5087 18.8733C67.0202 18.3867 66.6335 17.8076 66.3714 17.1699C66.1093 16.5322 65.9769 15.8486 65.982 15.1591V15.1591ZM73.5059 15.1591C73.4936 14.7114 73.3495 14.2773 73.0917 13.911C72.834 13.5448 72.4739 13.2626 72.0567 13.0999C71.6395 12.9371 71.1835 12.9009 70.7458 12.9959C70.3081 13.0909 69.9081 13.3128 69.5959 13.6338C69.2836 13.9549 69.0729 14.3608 68.9901 14.801C68.9073 15.2411 68.9561 15.6959 69.1303 16.1085C69.3046 16.5211 69.5966 16.8731 69.9699 17.1206C70.3431 17.3681 70.7811 17.5001 71.2289 17.5001C71.5357 17.5083 71.8408 17.4529 72.125 17.3373C72.4092 17.2217 72.6664 17.0484 72.8803 16.8285C73.0943 16.6085 73.2603 16.3466 73.368 16.0593C73.4757 15.772 73.5226 15.4655 73.5059 15.1591Z" fill="#131516"></path><path d="M77.861 7.55593C77.861 7.20348 77.9655 6.85895 78.1613 6.5659C78.3571 6.27286 78.6354 6.04445 78.961 5.90957C79.2866 5.7747 79.6449 5.73941 79.9906 5.80817C80.3363 5.87693 80.6538 6.04665 80.903 6.29586C81.1522 6.54508 81.322 6.8626 81.3907 7.20828C81.4595 7.55395 81.4242 7.91225 81.2893 8.23787C81.1544 8.56349 80.926 8.8418 80.633 9.03761C80.3399 9.23341 79.9954 9.33793 79.643 9.33793C79.1718 9.33324 78.7213 9.14399 78.3881 8.81081C78.0549 8.47763 77.8657 8.02709 77.861 7.55593V7.55593ZM78.161 10.2089H81.132V20.1089H78.157L78.161 10.2089Z" fill="#131516"></path><path d="M93.9561 15.1588C93.9904 15.8131 93.895 16.4677 93.6755 17.085C93.4559 17.7023 93.1165 18.2701 92.6768 18.7558C92.237 19.2414 91.7056 19.6354 91.113 19.9149C90.5205 20.1945 89.8785 20.3542 89.2241 20.3848C88.6737 20.4148 88.1235 20.322 87.6134 20.1131C87.1034 19.9041 86.6462 19.5843 86.2751 19.1768V24.0678H83.3051V10.2088H86.2751V11.1388C86.6464 10.7316 87.1036 10.412 87.6137 10.2033C88.1237 9.9945 88.6738 9.90177 89.2241 9.93179C89.8787 9.96225 90.5208 10.1219 91.1134 10.4015C91.7061 10.681 92.2376 11.0751 92.6774 11.5609C93.1172 12.0467 93.4566 12.6147 93.676 13.2321C93.8955 13.8496 93.9906 14.5044 93.9561 15.1588V15.1588ZM90.9861 15.1588C90.9744 14.6955 90.8264 14.2459 90.5606 13.8662C90.2947 13.4866 89.9227 13.1938 89.4913 13.0246C89.0598 12.8553 88.588 12.817 88.1349 12.9146C87.6819 13.0121 87.2676 13.2411 86.944 13.5729C86.6204 13.9047 86.4019 14.3246 86.3158 14.78C86.2297 15.2354 86.2798 15.7061 86.4599 16.1332C86.64 16.5602 86.942 16.9247 87.3282 17.1809C87.7144 17.4372 88.1676 17.5738 88.6311 17.5738C88.9492 17.5879 89.2668 17.5347 89.563 17.4175C89.8592 17.3003 90.1272 17.1219 90.3496 16.8939C90.5719 16.6658 90.7436 16.3934 90.8533 16.0944C90.963 15.7953 91.0082 15.4765 90.9861 15.1588V15.1588Z" fill="#131516"></path><path d="M103.121 17.1379C103.121 19.4149 101.142 20.3849 99.0039 20.3849C98.1401 20.4631 97.2727 20.2804 96.5137 19.8604C95.7548 19.4404 95.1394 18.8024 94.7469 18.0289L97.3199 16.5639C97.424 16.9214 97.6476 17.2324 97.9534 17.445C98.2591 17.6576 98.6285 17.7588 98.9999 17.7319C99.7119 17.7319 100.069 17.5139 100.069 17.1189C100.069 16.0289 95.1979 16.6039 95.1979 13.1789C95.1979 11.0199 97.0199 9.93185 99.0789 9.93185C99.853 9.90736 100.619 10.0909 101.298 10.4635C101.977 10.836 102.544 11.3838 102.939 12.0499L100.405 13.4159C100.294 13.1565 100.109 12.9357 99.873 12.7808C99.6372 12.6259 99.3611 12.5438 99.0789 12.5449C98.5639 12.5449 98.2469 12.7449 98.2469 13.0989C98.2509 14.2279 103.121 13.4749 103.121 17.1379Z" fill="#131516"></path><path d="M113.97 10.209V20.109H111V19.178C110.657 19.5888 110.222 19.9125 109.73 20.1225C109.238 20.3325 108.704 20.4228 108.17 20.386C106.17 20.386 104.47 18.961 104.47 16.286V10.209H107.44V15.851C107.415 16.0868 107.442 16.3251 107.519 16.5495C107.595 16.7739 107.72 16.9788 107.884 17.1502C108.048 17.3215 108.247 17.455 108.468 17.5415C108.688 17.628 108.925 17.6654 109.162 17.651C110.251 17.651 111.003 17.018 111.003 15.612V10.212L113.97 10.209Z" fill="#131516"></path><path d="M131 14.0302V20.1082H128.03V14.2872C128.03 13.2972 127.555 12.6642 126.605 12.6642C125.615 12.6642 125.06 13.3572 125.06 14.5252V20.1082H122.091V14.2872C122.091 13.2972 121.616 12.6642 120.665 12.6642C119.675 12.6642 119.121 13.3572 119.121 14.5252V20.1082H116.151V10.2082H119.121V11.1182C119.429 10.7145 119.833 10.3944 120.296 10.187C120.76 9.97966 121.268 9.89172 121.774 9.93123C122.282 9.90637 122.788 10.0136 123.243 10.2425C123.697 10.4714 124.084 10.8141 124.367 11.2372C124.696 10.7946 125.132 10.4426 125.634 10.2142C126.136 9.98576 126.688 9.88842 127.238 9.93123C129.511 9.93223 131 11.5552 131 14.0302Z" fill="#131516"></path><path d="M133.512 10.1482C134.729 10.1482 135.716 9.16147 135.716 7.94423C135.716 6.727 134.729 5.74023 133.512 5.74023C132.295 5.74023 131.308 6.727 131.308 7.94423C131.308 9.16147 132.295 10.1482 133.512 10.1482Z" fill="#131516"></path></svg>