<svg xmlns="http://www.w3.org/2000/svg" width="101" height="48" viewBox="0 0 101 48" fill="none"><path d="M0.790039 28.79H3.79004V43.5H0.790039V28.79Z" fill="#131516"></path><path d="M5.53003 38.4599C5.52805 37.4033 5.83955 36.3699 6.42511 35.4904C7.01068 34.6109 7.84398 33.9249 8.81956 33.5192C9.79514 33.1135 10.8691 33.0063 11.9057 33.2113C12.9422 33.4162 13.8946 33.924 14.6424 34.6704C15.3902 35.4168 15.8998 36.3683 16.1067 37.4044C16.3135 38.4405 16.2084 39.5147 15.8045 40.4911C15.4006 41.4674 14.7162 42.302 13.8378 42.8892C12.9594 43.4764 11.9266 43.7899 10.87 43.7899C10.1674 43.7979 9.47021 43.6656 8.81937 43.4007C8.16853 43.1358 7.5771 42.7436 7.07977 42.2472C6.58243 41.7508 6.18917 41.1601 5.92306 40.5098C5.65695 39.8594 5.52333 39.1625 5.53003 38.4599V38.4599ZM13.19 38.4599C13.1782 38.0038 13.0322 37.5612 12.7702 37.1877C12.5082 36.8141 12.1419 36.5261 11.7171 36.3597C11.2922 36.1933 10.8278 36.1558 10.3818 36.252C9.93574 36.3482 9.52799 36.5737 9.20951 36.9004C8.89102 37.2272 8.67595 37.6405 8.59119 38.0889C8.50642 38.5372 8.55574 39.0006 8.73296 39.421C8.91018 39.8414 9.20744 40.2003 9.58756 40.4527C9.96767 40.705 10.4138 40.8397 10.87 40.8399C11.1822 40.8486 11.4928 40.7926 11.7822 40.6752C12.0716 40.5579 12.3336 40.3819 12.5516 40.1583C12.7696 39.9347 12.9389 39.6683 13.0487 39.376C13.1586 39.0836 13.2067 38.7717 13.19 38.4599V38.4599Z" fill="#131516"></path><path d="M28.27 33.42V43C28.27 46.39 25.62 47.82 22.94 47.82C21.9976 47.8901 21.0541 47.6995 20.2127 47.2691C19.3714 46.8387 18.6647 46.1852 18.17 45.38L20.75 43.89C20.9547 44.3026 21.2787 44.6443 21.6798 44.8708C22.081 45.0972 22.5409 45.198 23 45.16C23.3021 45.2103 23.6118 45.1906 23.9051 45.1024C24.1984 45.0141 24.4675 44.8597 24.6916 44.651C24.9158 44.4423 25.089 44.1849 25.198 43.8986C25.3069 43.6124 25.3487 43.3049 25.32 43V42.07C24.9673 42.5039 24.5173 42.8486 24.0065 43.0762C23.4957 43.3038 22.9385 43.4079 22.38 43.38C21.0221 43.38 19.7198 42.8405 18.7596 41.8804C17.7994 40.9202 17.26 39.6179 17.26 38.26C17.26 36.9021 17.7994 35.5998 18.7596 34.6396C19.7198 33.6794 21.0221 33.14 22.38 33.14C22.9382 33.1145 23.4946 33.2196 24.005 33.447C24.5154 33.6745 24.9657 34.0179 25.32 34.45V33.45L28.27 33.42ZM25.32 38.26C25.34 37.7736 25.214 37.2924 24.9583 36.8782C24.7026 36.464 24.3289 36.1358 23.8851 35.9357C23.4414 35.7356 22.948 35.6728 22.4683 35.7553C21.9886 35.8379 21.5445 36.062 21.1932 36.3989C20.8419 36.7358 20.5994 37.1701 20.4968 37.646C20.3943 38.1218 20.4364 38.6174 20.6178 39.0691C20.7991 39.5208 21.1115 39.908 21.5146 40.1808C21.9177 40.4536 22.3933 40.5996 22.88 40.6C23.1977 40.6225 23.5166 40.5781 23.8162 40.4698C24.1157 40.3615 24.3892 40.1917 24.6191 39.9712C24.849 39.7508 25.0301 39.4846 25.1508 39.1899C25.2716 38.8951 25.3292 38.5784 25.32 38.26V38.26Z" fill="#131516"></path><path d="M30 38.4599C29.998 37.4033 30.3095 36.3699 30.8951 35.4904C31.4806 34.6109 32.314 33.9249 33.2895 33.5192C34.2651 33.1135 35.3391 33.0063 36.3756 33.2113C37.4122 33.4162 38.3646 33.924 39.1124 34.6704C39.8602 35.4168 40.3698 36.3683 40.5766 37.4044C40.7835 38.4405 40.6783 39.5147 40.2745 40.4911C39.8706 41.4674 39.1862 42.302 38.3078 42.8892C37.4294 43.4764 36.3966 43.7899 35.34 43.7899C34.6374 43.7979 33.9402 43.6656 33.2893 43.4007C32.6385 43.1358 32.0471 42.7436 31.5497 42.2472C31.0524 41.7508 30.6591 41.1601 30.393 40.5098C30.1269 39.8594 29.9933 39.1625 30 38.4599V38.4599ZM37.66 38.4599C37.6482 38.0038 37.5022 37.5612 37.2402 37.1877C36.9782 36.8141 36.6119 36.5261 36.187 36.3597C35.7622 36.1933 35.2977 36.1558 34.8517 36.252C34.4057 36.3482 33.998 36.5737 33.6795 36.9004C33.361 37.2272 33.1459 37.6405 33.0612 38.0889C32.9764 38.5372 33.0257 39.0006 33.2029 39.421C33.3802 39.8414 33.6774 40.2003 34.0575 40.4527C34.4376 40.705 34.8837 40.8397 35.34 40.8399C35.6505 40.8458 35.9589 40.7877 36.246 40.6691C36.533 40.5506 36.7925 40.3741 37.0083 40.1508C37.2242 39.9275 37.3916 39.6621 37.5003 39.3711C37.609 39.0802 37.6565 38.77 37.64 38.4599H37.66Z" fill="#131516"></path><path d="M42.0699 30.7199C42.0699 30.3599 42.1767 30.0081 42.3767 29.7088C42.5767 29.4095 42.8609 29.1762 43.1935 29.0384C43.526 28.9007 43.892 28.8646 44.245 28.9349C44.5981 29.0051 44.9223 29.1784 45.1769 29.433C45.4314 29.6875 45.6047 30.0118 45.675 30.3648C45.7452 30.7179 45.7092 31.0838 45.5714 31.4164C45.4337 31.7489 45.2004 32.0332 44.9011 32.2332C44.6018 32.4332 44.2499 32.5399 43.8899 32.5399C43.4081 32.5373 42.9467 32.3447 42.6059 32.0039C42.2652 31.6632 42.0726 31.2018 42.0699 30.7199ZM42.3799 33.4199H45.3799V43.4999H42.3799V33.4199Z" fill="#131516"></path><path d="M58.46 38.4601C58.4964 39.1265 58.4006 39.7934 58.1782 40.4225C57.9558 41.0517 57.6111 41.6306 57.1641 42.126C56.717 42.6214 56.1764 43.0235 55.5733 43.3091C54.9702 43.5947 54.3166 43.7582 53.65 43.7901C53.0904 43.817 52.5318 43.7208 52.0134 43.5083C51.4951 43.2957 51.0297 42.9721 50.65 42.5601V47.5601H47.65V33.4201H50.65V34.3701C51.0297 33.9582 51.4951 33.6345 52.0134 33.422C52.5318 33.2095 53.0904 33.1133 53.65 33.1401C54.3157 33.1722 54.9684 33.3353 55.5708 33.6203C56.1732 33.9053 56.7134 34.3065 57.1604 34.8008C57.6073 35.2951 57.9522 35.8728 58.1752 36.5008C58.3982 37.1288 58.495 37.7947 58.46 38.4601V38.4601ZM55.46 38.4601C55.4481 37.9908 55.2988 37.5352 55.0306 37.1499C54.7624 36.7645 54.3871 36.4663 53.9511 36.2922C53.5151 36.118 53.0376 36.0755 52.5777 36.17C52.1178 36.2646 51.6957 36.4919 51.3637 36.8239C51.0318 37.1558 50.8044 37.5779 50.7099 38.0378C50.6154 38.4977 50.6579 38.9752 50.832 39.4112C51.0062 39.8472 51.3044 40.2226 51.6898 40.4908C52.0751 40.759 52.5307 40.9083 53 40.9201C53.3276 40.941 53.6558 40.8914 53.9626 40.7749C54.2694 40.6584 54.5478 40.4775 54.7789 40.2445C55.01 40.0114 55.1886 39.7317 55.3026 39.4239C55.4167 39.1161 55.4635 38.7875 55.44 38.4601H55.46Z" fill="#131516"></path><path d="M67.8 40.48C67.8 42.8 65.8 43.79 63.6 43.79C62.7212 43.8678 61.8392 43.6808 61.0675 43.2531C60.2958 42.8254 59.6698 42.1765 59.27 41.39L61.89 39.9C61.9964 40.2638 62.224 40.5802 62.5351 40.7966C62.8462 41.0131 63.222 41.1166 63.6 41.09C64.33 41.09 64.69 40.86 64.69 40.46C64.69 39.35 59.69 39.94 59.69 36.46C59.69 34.26 61.55 33.15 63.69 33.15C64.4797 33.126 65.2614 33.3136 65.9542 33.6934C66.647 34.0732 67.2256 34.6313 67.63 35.31L65 36.69C64.8838 36.4259 64.6935 36.2012 64.4521 36.0432C64.2106 35.8852 63.9285 35.8007 63.64 35.8C63.12 35.8 62.8 36 62.8 36.37C62.84 37.52 67.8 36.75 67.8 40.48Z" fill="#131516"></path><path d="M78.8399 33.4199V43.4999H75.8399V42.5599C75.4909 42.9776 75.0481 43.3068 74.5475 43.5205C74.047 43.7343 73.503 43.8266 72.9599 43.7899C70.9599 43.7899 69.1899 42.3399 69.1899 39.6099V33.4199H72.1899V39.1699C72.1636 39.415 72.1921 39.6628 72.2734 39.8954C72.3547 40.1281 72.4869 40.3397 72.6602 40.5149C72.8335 40.6902 73.0436 40.8246 73.2754 40.9085C73.5071 40.9924 73.7546 41.0236 73.9999 40.9999C75.0999 40.9999 75.8699 40.3599 75.8699 38.9299V33.4199H78.8399Z" fill="#131516"></path><path d="M96.18 37.3202V43.5002H93.18V37.5802C93.18 36.5802 92.69 35.9202 91.73 35.9202C90.77 35.9202 90.15 36.6302 90.15 37.8202V43.5002H87.15V37.5802C87.15 36.5802 86.67 35.9202 85.7 35.9202C84.73 35.9202 84.13 36.6302 84.13 37.8202V43.5002H81.13V33.4202H84.13V34.3502C84.4435 33.9395 84.8548 33.6136 85.3263 33.4023C85.7979 33.191 86.3148 33.1009 86.83 33.1402C87.3474 33.1151 87.8626 33.2244 88.3252 33.4575C88.7878 33.6905 89.1822 34.0394 89.47 34.4702C89.8047 34.0198 90.248 33.6616 90.7587 33.429C91.2693 33.1964 91.8306 33.0971 92.39 33.1402C94.67 33.1402 96.18 34.8002 96.18 37.3202Z" fill="#131516"></path><path d="M98.74 33.3599C99.9771 33.3599 100.98 32.357 100.98 31.1199C100.98 29.8828 99.9771 28.8799 98.74 28.8799C97.5029 28.8799 96.5 29.8828 96.5 31.1199C96.5 32.357 97.5029 33.3599 98.74 33.3599Z" fill="#131516"></path><path d="M34.74 21.1602C40.5335 21.1602 45.23 16.4636 45.23 10.6702C45.23 4.87671 40.5335 0.180176 34.74 0.180176C28.9465 0.180176 24.25 4.87671 24.25 10.6702C24.25 16.4636 28.9465 21.1602 34.74 21.1602Z" fill="#131516"></path><path d="M58.19 21.1602C63.9834 21.1602 68.68 16.4636 68.68 10.6702C68.68 4.87671 63.9834 0.180176 58.19 0.180176C52.3965 0.180176 47.7 4.87671 47.7 10.6702C47.7 16.4636 52.3965 21.1602 58.19 21.1602Z" fill="#131516"></path><path d="M21.7801 0.180176H0.810059V21.1502H21.7801V0.180176Z" fill="#131516"></path></svg>